<svg height="512" viewBox="0 0 60 60" width="512" xmlns="http://www.w3.org/2000/svg"><g id="012---Money-Increase"><path id="Shape" d="m4 60h28c1.0982736.0015147 2.1488565-.448616 2.9053423-1.2448173.7564857-.7962013 1.1523182-1.8684227 1.0946577-2.9651827 3.9792942 4.067819 10.0248921 5.322301 15.2941382 3.1735853s8.7136538-7.2730727 8.7136538-12.9635853-3.4444077-10.8148696-8.7136538-12.9635853-11.314844-.8942337-15.2941382 3.1735853v-20.21h4v12.5c0 .8284271.6715729 1.5 1.5 1.5h9c.3969024.0026638.7784638-.1531411 1.0600595-.4328595.2815958-.2797185.4399494-.6602292.4399405-1.0571405v-12.51h5.5c.5818916.0101592 1.1149901-.3239303 1.3595598-.8520276.2445696-.5280973.1545567-1.150759-.2295598-1.5879724l-11.45-12.18c-.2779575-.34830328-.695568-.55604697-1.1410359-.56761757-.445468-.01157059-.8732999.17421356-1.1689641.50761757l-8.87 9.44v-6.76c0-2.209139-1.790861-4-4-4h-28c-2.209139 0-4 1.790861-4 4v52c0 2.209139 1.790861 4 4 4zm28-2h-28c-1.1045695 0-2-.8954305-2-2v-1.56c.60399287.3635516 1.29504012.5570448 2 .56h28c.7049599-.0029552 1.3960071-.1964484 2-.56v1.56c0 1.1045695-.8954305 2-2 2zm14-24c5.7376884-.0105012 10.680038 4.0421783 11.7937382 9.6707527 1.1137002 5.6285745-1.9128896 11.2580314-7.2222343 13.4333559-5.3093448 2.1753245-11.4157604.2878077-14.5715039-4.5041086v-13.2c2.205477-3.3754686 5.9678957-5.4071747 10-5.4zm0-31 10.3 11h-4.8c-.8284271 0-1.5.6715729-1.5 1.5v12.5h-8v-12.51c0-.8229043-.6670957-1.49-1.49-1.49h-4.51v-.32zm-20.31-1-1.28 1.37c-.3666957.39030942-.874608.61724897-1.41.63h-9.9c-.5528207.00080487-1.081318-.2272453-1.46-.63l-1.33-1.37zm-23.69 2c0-1.1045695.8954305-2 2-2h3.57l2.56 2.74c.7573641.8055094 1.8143585 1.26160975 2.92 1.26h9.95c1.1056415.00160975 2.1626359-.4544906 2.92-1.26l2.51-2.74h3.57c1.1045695 0 2 .8954305 2 2v47c0 1.1045695-.8954305 2-2 2h-28c-1.1045695 0-2-.8954305-2-2z"/><path id="Shape" d="m5 50h26c.5522847 0 1-.4477153 1-1v-35c0-1.1045695-.8954305-2-2-2h-4c-1.1045695 0-2 .8954305-2 2v34h-2v-24c0-1.1045695-.8954305-2-2-2h-4c-1.1045695 0-2 .8954305-2 2v24h-2v-18c0-1.1045695-.8954305-2-2-2h-4c-1.1045695 0-2 .8954305-2 2v19c0 .5522847.44771525 1 1 1zm25-36v16h-4v-16zm-4 18h4v16h-4zm-6-8v17h-4v-17zm-4 19h4v5h-4zm-10 5v-8h4v8zm4-18v8h-4v-8z"/><path id="Shape" d="m46 51c-1.1045695 0-2-.8954305-2-2 0-.5522847-.4477153-1-1-1s-1 .4477153-1 1c.0059072 1.819157 1.2385971 3.4052179 3 3.86v1.14c0 .5522847.4477153 1 1 1s1-.4477153 1-1v-1.14c1.9260077-.5228481 3.1719503-2.3853678 2.9200729-4.3651238-.2518773-1.979756-1.9245019-3.4709567-3.9200729-3.4948762-1.1045695 0-2-.8954305-2-2s.8954305-2 2-2 2 .8954305 2 2c0 .5522847.4477153 1 1 1s1-.4477153 1-1c-.0059072-1.819157-1.2385971-3.4052179-3-3.86v-1.14c0-.5522847-.4477153-1-1-1s-1 .4477153-1 1v1.14c-1.9260077.5228481-3.1719503 2.3853678-2.9200729 4.3651238.2518773 1.979756 1.9245019 3.4709567 3.9200729 3.4948762 1.1045695 0 2 .8954305 2 2s-.8954305 2-2 2z"/></g></svg>