<?xml version="1.0" encoding="UTF-8"?><!DOCTYPE svg PUBLIC "-//W3C//DTD SVG 1.1//EN" "http://www.w3.org/Graphics/SVG/1.1/DTD/svg11.dtd"><svg height="511pt" viewBox="0 0 511.99995 511" width="511pt" xmlns="http://www.w3.org/2000/svg"><path d="m255.839844 215.894531c8.273437 0 15 6.722657 15 15 0 8.289063 6.707031 15 15 15 8.289062 0 15-6.710937 15-15 0-19.46875-12.5-35.929687-29.839844-42.1875v-22.207031c0-8.292969-6.710938-15-15-15s-15 6.707031-15 15v22.109375c-17.503906 6.164063-30.160156 22.695313-30.160156 42.285156 0 24.8125 20.183594 45 45 45 8.273437 0 15 6.722657 15 15 0 8.273438-6.726563 15-15 15-8.277344 0-15-6.726562-15-15 0-8.292969-6.710938-15-15-15-8.292969 0-15 6.707031-15 15 0 19.585938 12.65625 36.117188 30.160156 42.285157v13.320312c0 8.289062 6.710938 15 15 15s15-6.710938 15-15v-13.421875c17.339844-6.257813 29.839844-22.714844 29.839844-42.1875 0-24.8125-20.1875-45-45-45-8.277344 0-15-6.722656-15-15 0-8.273437 6.722656-14.996094 15-14.996094zm0 0"/><path d="m396.375 410.234375-16.742188-25.105469c-5.023437-7.503906-15.644531-9.054687-22.589843-2.769531-27.667969 25.238281-63.558594 39.140625-101.042969 39.140625 0-3.019531 0-18.003906 0-14.980469 0-11.148437-11.734375-18.402343-21.707031-13.417969l-75 44.984376c-11.054688 5.527343-11.054688 21.300781 0 26.832031l75 45.976562c9.972656 4.988281 21.707031-2.261719 21.707031-13.414062 0-3.023438 0-18 0-14.980469 50.683594 0 99.609375-19.339844 137.753906-52.648438 5.683594-4.953124 6.796875-13.347656 2.621094-19.617187zm0 0"/><path d="m119.398438 234.792969-44.980469-75c-5.53125-11.058594-21.304688-11.058594-26.832031 0l-45.984376 75c-4.984374 9.972656 2.269532 21.707031 13.417969 21.707031 3.023438 0 19 0 15.980469 0 0 50.683594 18.339844 99.609375 51.648438 137.753906 4.953124 5.6875 13.351562 6.796875 19.617187 2.621094l25.121094-16.742188c7.691406-5.148437 8.90625-15.886718 2.753906-22.585937-25.238281-27.671875-39.140625-63.570313-39.140625-101.054687 3.019531 0 18 0 14.980469 0 11.152343 0 18.402343-11.726563 13.417969-21.699219zm0 0"/><path d="m154.957031 130.640625c27.667969-25.238281 63.558594-39.140625 101.042969-39.140625 0 3.019531 0 18 0 14.980469 0 11.148437 11.734375 18.402343 21.707031 13.414062l75-44.980469c11.054688-5.527343 11.054688-21.300781 0-26.832031l-75-45.980469c-9.972656-4.984374-21.707031 2.269532-21.707031 13.417969 0 3.019531 0 19.003907 0 15.980469-50.683594 0-99.609375 18.339844-137.753906 51.652344-5.683594 4.949218-6.796875 13.34375-2.621094 19.613281l16.742188 25.105469c5.097656 7.617187 15.785156 8.960937 22.589843 2.769531zm0 0"/><path d="m464.414062 353.207031 45.984376-75c4.984374-9.972656-2.269532-21.707031-13.417969-21.707031-3.023438 0-19 0-15.980469 0 0-50.683594-18.339844-99.609375-51.648438-137.753906-4.9375-5.699219-13.332031-6.824219-19.617187-2.621094l-25.105469 16.742188c-7.640625 5.113281-8.9375 15.800781-2.769531 22.589843 25.238281 27.667969 39.140625 63.558594 39.140625 101.042969-3.019531 0-18 0-14.980469 0-11.152343 0-18.402343 11.734375-13.417969 21.707031l44.980469 75c5.53125 11.054688 21.304688 11.054688 26.832031 0zm0 0"/></svg>