<svg id="Capa_1" enable-background="new 0 0 512 512" height="512" viewBox="0 0 512 512" width="512" xmlns="http://www.w3.org/2000/svg"><g><path d="m474.5 218.5c-15.346 0-28.561 9.27-34.359 22.5h-49.978c-2.888-26-13.186-49.792-28.733-69.216l35.384-35.384c13.456 5.255 29.355 2.465 40.206-8.386 14.622-14.621 14.621-38.412 0-53.033s-38.411-14.622-53.033 0c-10.851 10.851-13.641 26.75-8.386 40.206l-35.385 35.385c-19.424-15.548-43.216-25.847-69.216-28.734v-49.979c13.23-5.798 22.5-19.013 22.5-34.359 0-20.678-16.823-37.5-37.5-37.5s-37.5 16.822-37.5 37.5c0 15.346 9.27 28.561 22.5 34.359v49.978c-26 2.888-49.792 13.186-69.216 28.733l-35.384-35.384c5.255-13.456 2.465-29.354-8.386-40.206-14.621-14.622-38.412-14.621-53.033 0s-14.622 38.411 0 53.033c10.851 10.851 26.75 13.641 40.206 8.386l35.384 35.384c-15.547 19.425-25.846 43.217-28.733 69.217h-49.979c-5.798-13.23-19.013-22.5-34.359-22.5-20.678 0-37.5 16.823-37.5 37.5s16.822 37.5 37.5 37.5c15.346 0 28.561-9.27 34.359-22.5h49.978c2.888 26 13.186 49.792 28.733 69.216l-35.383 35.384c-13.456-5.255-29.355-2.465-40.206 8.386-14.622 14.621-14.621 38.412 0 53.033s38.411 14.622 53.033 0c10.851-10.851 13.641-26.75 8.386-40.206l35.385-35.385c19.423 15.548 43.215 25.847 69.215 28.734v49.978c-13.23 5.798-22.5 19.013-22.5 34.359 0 20.678 16.823 37.5 37.5 37.5s37.5-16.822 37.5-37.5c0-15.346-9.27-28.561-22.5-34.359v-49.978c26-2.888 49.792-13.186 69.216-28.733l35.385 35.385c-5.255 13.456-2.465 29.354 8.386 40.206 14.621 14.622 38.412 14.621 53.033 0s14.622-38.411 0-53.033c-10.851-10.851-26.75-13.641-40.206-8.386l-35.384-35.384c15.546-19.425 25.845-43.217 28.732-69.217h49.978c5.798 13.23 19.013 22.5 34.359 22.5 20.678 0 37.5-16.823 37.5-37.5s-16.821-37.5-37.499-37.5zm-231 107.998c0-6.904 5.596-12.5 12.5-12.5s12.5 5.596 12.5 12.5c0 6.903-5.596 12.5-12.5 12.5s-12.5-5.597-12.5-12.5zm46.945-72.048c-6.004 6.324-13.645 10.834-21.945 13.111v25.79c0 6.903-5.597 12.5-12.5 12.5s-12.5-5.597-12.5-12.5v-36.599c0-6.904 5.597-12.5 12.5-12.5 6.227 0 12.021-2.491 16.315-7.015 4.292-4.521 6.477-10.451 6.152-16.699-.606-11.697-10.27-21.045-21.998-21.281-11.366-.248-21.182 8.085-22.752 19.341-.145 1.036-.218 2.097-.218 3.154 0 6.904-5.597 12.5-12.5 12.5s-12.5-5.596-12.5-12.5c0-2.209.154-4.433.458-6.609 3.319-23.79 23.919-41.356 48.016-40.881 24.77.499 45.178 20.257 46.461 44.981.683 13.162-3.929 25.666-12.989 35.207z"/></g></svg>