<svg height="512pt" viewBox="0 0 512 512" width="512pt" xmlns="http://www.w3.org/2000/svg"><path d="m262.957031 239.300781c-13.535156 7.121094-21.957031 21.871094-21.957031 38.511719 0 8.289062 6.710938 15 15 15s15-6.710938 15-15c0-5.289062 2.386719-10.09375 5.933594-11.96875 14.835937-7.808594 24.066406-23.070312 24.066406-39.84375 0-24.8125-20.1875-45-45-45s-45 20.1875-45 45c0 8.289062 6.710938 15 15 15s15-6.710938 15-15c0-8.277344 6.722656-15 15-15s15 6.722656 15 15c0 5.597656-3.074219 10.691406-8.042969 13.300781zm0 0"/><path d="m271 316c0 8.285156-6.714844 15-15 15s-15-6.714844-15-15 6.714844-15 15-15 15 6.714844 15 15zm0 0"/><path d="m17.390625 241h91.472656c7.308594 0 13.164063-5.363281 14.65625-12.519531 10.890625-52.1875 52.773438-94.070313 104.960938-104.960938 7.15625-1.492187 12.519531-7.347656 12.519531-14.65625v-91.472656c0-8.894531-7.777344-16.214844-16.605469-15.117187-47.234375 5.882812-91.335937 24.777343-126.886719 52.808593l-16.292968-16.296875 13.179687-13.179687c9.449219-9.449219 2.753907-25.605469-10.609375-25.605469h-68.785156c-8.285156 0-15 6.714844-15 15v68.785156c0 13.363282 16.15625 20.058594 25.605469 10.605469l13.179687-13.179687 16.296875 16.296874c-28.03125 35.550782-46.925781 79.652344-52.808593 126.882813-1.097657 8.828125 6.222656 16.609375 15.117187 16.609375zm0 0"/><path d="m497 0h-68.785156c-13.363282 0-20.058594 16.15625-10.605469 25.605469l13.179687 13.179687-16.296874 16.296875c-35.550782-28.035156-79.652344-46.929687-126.886719-52.808593-8.828125-1.097657-16.605469 6.222656-16.605469 15.117187v91.46875c0 7.3125 5.363281 13.167969 12.519531 14.660156 52.1875 10.890625 94.070313 52.769531 104.960938 104.960938 1.492187 7.15625 7.347656 12.519531 14.65625 12.519531h91.472656c8.894531 0 16.214844-7.78125 15.117187-16.609375-5.882812-47.230469-24.777343-91.335937-52.808593-126.882813l16.296875-16.296874 13.179687 13.179687c9.449219 9.453125 25.605469 2.757813 25.605469-10.605469v-68.785156c0-8.285156-6.714844-15-15-15zm0 0"/><path d="m228.480469 388.480469c-52.1875-10.894531-94.070313-52.773438-104.960938-104.964844-1.492187-7.152344-7.347656-12.515625-14.65625-12.515625h-91.472656c-8.894531 0-16.214844 7.777344-15.117187 16.605469 5.882812 47.234375 24.777343 91.335937 52.808593 126.886719l-16.296875 16.292968-13.179687-13.179687c-9.449219-9.449219-25.605469-2.753907-25.605469 10.609375v68.785156c0 8.285156 6.714844 15 15 15h68.785156c13.363282 0 20.058594-16.15625 10.605469-25.605469l-13.179687-13.179687 16.296874-16.296875c35.546876 28.035156 79.652344 46.925781 126.886719 52.808593 8.828125 1.097657 16.605469-6.222656 16.605469-15.117187v-91.472656c0-7.308594-5.363281-13.164063-12.519531-14.65625zm0 0"/><path d="m486.394531 417.605469-13.179687 13.179687-16.296875-16.292968c28.03125-35.550782 46.925781-79.652344 52.808593-126.886719 1.097657-8.828125-6.222656-16.605469-15.117187-16.605469h-91.472656c-7.308594 0-13.164063 5.363281-14.65625 12.515625-10.890625 52.191406-52.773438 94.070313-104.960938 104.964844-7.15625 1.492187-12.519531 7.347656-12.519531 14.65625v91.46875c0 8.898437 7.777344 16.21875 16.605469 15.121093 47.234375-5.882812 91.335937-24.773437 126.886719-52.808593l16.292968 16.296875-13.179687 13.179687c-9.449219 9.449219-2.757813 25.605469 10.605469 25.605469h68.789062c8.285156 0 15-6.71875 15-15v-68.789062c0-13.359376-16.15625-20.054688-25.605469-10.605469zm0 0"/></svg>