<svg id="Layer_5" enable-background="new 0 0 64 64" height="512" viewBox="0 0 64 64" width="512" xmlns="http://www.w3.org/2000/svg"><g><g><g><path d="m8 11h25.92c-.48 1.26-.79 2.6-.88 4h-.04-22-3c-.55 0-1-.45-1-1v-2c0-.55.45-1 1-1z" fill="#aab2bd"/></g><g><path d="m33 22v1s-4 1.6-9.13 1.93c-.61.05-1.23.07-1.87.07-6 0-11-2-11-2v-1-7h22v1z" fill="#969faa"/></g><g><path d="m23.47 52.84 1.53 9.16h-6l1.53-9.16 1.47-.84z" fill="#e6e9ed"/></g><g><path d="m29 46.6v9.4l-5.53-3.16-1.47-.84 4-6z" fill="#ccd1d9"/></g><g><path d="m18 46 4 6-1.47.84-5.53 3.16v-9.4z" fill="#ccd1d9"/></g><g><path d="m20.53 52.84-1.53 9.16h-4v-6z" fill="#aab2bd"/></g><g><path d="m29 56v6h-4l-1.53-9.16z" fill="#aab2bd"/></g><g><path d="m11 47.4v14.6h-8v-6.44c0-3.67 2.49-6.85 6.01-7.75.14-.04.28-.07.42-.1z" fill="#aab2bd"/></g><g><path d="m41 55.56v6.44h-8v-14.6l1.57.31c.13.03.26.06.39.1 3.54.88 6.04 4.06 6.04 7.75z" fill="#aab2bd"/></g><g><path d="m15 56v6h-4v-14.6l4-.8z" fill="#b4dd7f"/></g><g><path d="m33 47.4v14.6h-4v-6-9.4z" fill="#b4dd7f"/></g><g><path d="m25.25 42.23.75 3.77-4 6-4-6 .75-3.77c.96.5 2.06.77 3.25.77s2.29-.27 3.25-.77z" fill="#f0d0b4"/></g><g><path d="m25.34 27.89c1.08.72 2.36 1.11 3.66 1.11v6c0 3.51-1.48 6.04-3.75 7.23-.96.5-2.06.77-3.25.77s-2.29-.27-3.25-.77l-1.75-1.35c-1.25-1.38-2-3.38-2-5.88v-6h2.39c2.36 0 4.65-.7 6.61-2z" fill="#f0d0b4"/></g><g><path d="m33 22v1s-4 1.6-9.13 1.93c-.61.05-1.23.07-1.87.07-6 0-11-2-11-2v-1c0 8-5 14-5 19 0 2.19.96 4.57 2.95 6.55l.06.26c.14-.04.28-.07.42-.1l1.57-.31 4-.8 3-.6.75-3.77-1.75-1.35c-1.25-1.38-2-3.38-2-5.88v-6h2.39c2.36 0 4.65-.7 6.61-2l1.34.89c1.08.72 2.36 1.11 3.66 1.11v6c0 3.51-1.48 6.04-3.75 7.23l.75 3.77 3 .6 4 .8 1.57.31c.13.03.26.06.39.1l.05-.22c2.02-1.99 2.99-4.39 2.99-6.59 0-5-5-11-5-19z" fill="#b27946"/></g><g><path d="m47 2c7.73 0 14 6.27 14 14s-6.27 14-14 14-14-6.27-14-14c0-.34.01-.67.04-1 .09-1.4.4-2.74.88-4 2.02-5.26 7.11-9 13.08-9z" fill="#ffc729"/></g><g><circle cx="47" cy="16" fill="#fcd770" r="10"/></g></g><g><path d="m22 38c-1.103 0-2-.897-2-2h-2c0 2.206 1.794 4 4 4s4-1.794 4-4h-2c0 1.103-.897 2-2 2z"/><circle cx="25" cy="32" r="1"/><circle cx="19" cy="32" r="1"/><path d="m48 13c.551 0 1 .449 1 1h2c0-1.654-1.346-3-3-3v-2h-2v2h-3v3c0 1.654 1.346 3 3 3h2c.551 0 1 .449 1 1v1h-3c-.551 0-1-.449-1-1h-2c0 1.654 1.346 3 3 3v2h2v-2h3v-3c0-1.654-1.346-3-3-3h-2c-.551 0-1-.449-1-1v-1z"/><path d="m47 5c-6.065 0-11 4.935-11 11s4.935 11 11 11 11-4.935 11-11-4.935-11-11-11zm0 20c-4.962 0-9-4.038-9-9s4.038-9 9-9 9 4.038 9 9-4.038 9-9 9z"/><path d="m47 1c-6.137 0-11.419 3.709-13.739 9h-25.261c-1.103 0-2 .897-2 2v2c0 1.103.897 2 2 2h2v6c0 4.273-1.521 8.022-2.863 11.331-1.099 2.708-2.137 5.266-2.137 7.669 0 2.222.849 4.426 2.403 6.319-3.216 1.409-5.403 4.618-5.403 8.24v7.441h40v-7.441c0-3.622-2.188-6.832-5.403-8.24 1.553-1.894 2.403-4.096 2.403-6.319 0-2.403-1.038-4.961-2.137-7.669-1.176-2.899-2.489-6.137-2.796-9.769 2.608 4.441 7.421 7.438 12.933 7.438 8.271 0 15-6.729 15-15s-6.729-15-15-15zm-39 13v-2h24.558c-.18.65-.317 1.318-.409 2h-22.149zm4 2h20v6.299c-1.493.51-5.465 1.701-10 1.701-4.522 0-8.504-1.192-10-1.702zm2 31.82v13.18h-2v-12.78zm3.539-.708 3.034 4.551-4.573 2.614v-6.857zm-1.539 9.468 3.194-1.825-1.041 6.245h-2.153zm5.435-3.105.565-.323.565.323 1.255 7.525h-3.64zm3.371 1.28 3.194 1.825v4.42h-2.153zm5.194-6.935 2 .4v12.78h-2zm-2 6.457-4.574-2.614 3.034-4.551 1.54.308zm-3.062-8.487-2.938 4.407-2.938-4.408.435-2.172c.775.25 1.613.383 2.503.383s1.728-.133 2.504-.383zm-2.938-3.79c-3.645 0-6-2.748-6-7v-5h1.395c2.332 0 4.596-.624 6.59-1.809l.797.531c.974.649 2.071 1.061 3.219 1.212v5.066c-.001 4.252-2.356 7-6.001 7zm-13.01-7.918c1.166-2.874 2.446-6.072 2.86-9.724 1.881.607 5.727 1.642 10.15 1.642.609 0 1.203-.024 1.787-.06l-.342.228c-1.798 1.199-3.89 1.832-6.05 1.832h-3.395v7c0 3.433 1.386 6.187 3.639 7.707l-.489 2.443-7.641 1.528c-1.615-1.672-2.509-3.678-2.509-5.678 0-2.013.922-4.286 1.99-6.918zm-4.99 21.477c0-3.326 2.367-6.212 5.627-6.864l.373-.075v12.38h-6zm36 0v5.441h-6v-12.38l.373.075c3.26.651 5.627 3.538 5.627 6.864zm-3-14.559c0 2.001-.894 4.006-2.51 5.678l-7.64-1.528-.489-2.444c2.253-1.519 3.639-4.273 3.639-7.706v-7h-1c-1.11 0-2.186-.326-3.109-.941l-1.711-1.141c3.486-.256 6.407-1.055 7.97-1.56.414 3.653 1.695 6.851 2.86 9.724 1.068 2.632 1.99 4.905 1.99 6.918zm10-12c-7.168 0-13-5.832-13-13s5.832-13 13-13 13 5.832 13 13-5.832 13-13 13z"/></g></g></svg>